<?xml version="1.0" encoding="iso-8859-1"?>
<!-- Generator: Adobe Illustrator 19.0.0, SVG Export Plug-In . SVG Version: 6.00 Build 0)  -->
<svg version="1.1" id="Layer_1" xmlns="http://www.w3.org/2000/svg" xmlns:xlink="http://www.w3.org/1999/xlink" x="0px" y="0px"
	 viewBox="0 0 512.001 512.001" style="enable-background:new 0 0 512.001 512.001;" xml:space="preserve">
<g>
	<g>
		<path  style="fill:#ffff;" d="M372.084,184.656l-0.309-0.071c-32.763-7.593-73.878-11.775-115.774-11.775c-41.895,0-83.013,4.181-115.804,11.781
			l-0.26,0.061c-7.031,1.636-11.756,7.594-11.756,14.825c0,7.23,4.725,13.188,11.782,14.83l0.262,0.061
			c32.763,7.594,73.879,11.775,115.775,11.775s83.014-4.181,115.735-11.766l0.209-0.047c0.002,0,0.118-0.027,0.121-0.028
			c7.031-1.636,11.756-7.594,11.756-14.824C383.819,192.244,379.096,186.288,372.084,184.656z M256.001,209.232
			c-37.609,0-74.458-3.447-104.76-9.757c30.29-6.309,67.147-9.756,104.76-9.756c37.58,0,74.402,3.442,104.756,9.757
			C330.468,205.785,293.615,209.232,256.001,209.232z"/>
	</g>
</g>
<g>
	<g>
		<path  style="fill:#ffff;" d="M503.545,317.261h-9.862l-24.83-118.833c-0.749-20.501-23.463-38.121-65.837-51.009
			c-39.387-11.979-91.6-18.577-147.016-18.577c-55.417,0-107.629,6.598-147.016,18.577c-42.373,12.888-65.088,30.509-65.837,51.009
			L18.317,317.261H8.455c-4.671,0-8.455,3.786-8.455,8.455s3.784,8.455,8.455,8.455h16.709c0.011,0,0.021,0.001,0.033,0.001
			c0.012,0,0.025-0.001,0.038-0.001h13.283c4.671,0,8.455-3.786,8.455-8.455s-3.784-8.455-8.455-8.455h-2.925l7.846-37.551
			c31.515,30.759,118.92,47.567,204.107,48.613v37.926h-6.577c-4.671,0-8.455,3.786-8.455,8.455s3.784,8.455,8.455,8.455h30.063
			c4.671,0,8.455-3.786,8.455-8.455s-3.784-8.455-8.455-8.455h-6.576v-37.926c85.186-1.046,172.591-17.854,204.106-48.613
			l7.846,37.549h-2.927c-4.671,0-8.455,3.786-8.455,8.455s3.784,8.455,8.455,8.455h13.283c0.012,0,0.025,0.001,0.038,0.001
			c0.011,0,0.021-0.001,0.033-0.001h16.709c4.671,0,8.455-3.786,8.455-8.455S508.216,317.261,503.545,317.261z M247.544,311.415
			c-53.799-0.63-103.978-7.266-142.078-18.855c-33.347-10.143-54.784-23.806-57.152-36.183l6.723-32.178
			c10.851,10.499,28.981,19.737,53.945,27.33c37.378,11.368,86.307,17.885,138.561,18.522V311.415z M113.904,235.353
			c-26.047-7.923-53.882-21.508-53.882-35.878s27.835-27.955,53.882-35.878c37.837-11.508,88.301-17.846,142.096-17.846
			s104.259,6.338,142.097,17.846c26.047,7.923,53.882,21.508,53.882,35.878s-27.834,27.955-53.882,35.878
			c-37.837,11.508-88.301,17.846-142.096,17.846S151.742,246.861,113.904,235.353z M406.534,292.561
			c-38.1,11.589-88.28,18.225-142.078,18.855v-41.363c52.254-0.636,101.184-7.154,138.561-18.522
			c24.965-7.593,43.096-16.831,53.945-27.33l6.723,32.179C461.318,268.756,439.881,282.418,406.534,292.561z"/>
	</g>
</g>
<g>
</g>
<g>
</g>
<g>
</g>
<g>
</g>
<g>
</g>
<g>
</g>
<g>
</g>
<g>
</g>
<g>
</g>
<g>
</g>
<g>
</g>
<g>
</g>
<g>
</g>
<g>
</g>
<g>
</g>
</svg>
