<?xml version="1.0" encoding="iso-8859-1"?>
<!-- Generator: Adobe Illustrator 19.0.0, SVG Export Plug-In . SVG Version: 6.00 Build 0)  -->
<svg version="1.1" id="Capa_1" xmlns="http://www.w3.org/2000/svg" xmlns:xlink="http://www.w3.org/1999/xlink" x="0px" y="0px"
	 viewBox="0 0 470 470" style="enable-background:new 0 0 470 470;" xml:space="preserve">
<g>
	<path style = "fill:#fff" d="M391.591,52.5c-4.143,0-7.5,3.358-7.5,7.5v52.5h-54.247c-0.798-0.036-1.598-0.061-2.405-0.061
		c-0.31,0-0.613,0.025-0.913,0.061H214.383c-0.3-0.036-0.603-0.061-0.913-0.061c-0.807,0-1.607,0.025-2.405,0.061H85.909V60
		c0-4.142-3.357-7.5-7.5-7.5C35.174,52.5,0,87.674,0,130.909v238.182C0,395.784,21.716,417.5,48.409,417.5h373.182
		c26.693,0,48.409-21.716,48.409-48.409V130.909C470,87.674,434.826,52.5,391.591,52.5z M391.591,127.5c4.143,0,7.5-3.358,7.5-7.5
		V67.941C430.533,71.663,455,98.482,455,130.909V202.5h-90.781C373.949,192.955,380,179.674,380,165s-6.051-27.955-15.781-37.5
		H391.591z M211.381,202.5c-19.743-1.088-35.472-17.49-35.472-37.5s15.729-36.412,35.472-37.5h118.146
		C349.271,128.588,365,144.99,365,165s-15.729,36.412-35.473,37.5H211.381z M15,130.909c0-32.427,24.467-59.247,55.909-62.968V120
		c0,4.142,3.357,7.5,7.5,7.5h98.28c-9.729,9.545-15.78,22.826-15.78,37.5s6.051,27.955,15.78,37.5H15V130.909z M421.591,402.5
		H48.409C29.987,402.5,15,387.513,15,369.091V217.5h196.065c0.798,0.036,1.598,0.061,2.405,0.061c0.31,0,0.613-0.025,0.913-0.061
		h112.142c0.3,0.036,0.603,0.061,0.913,0.061c0.807,0,1.607-0.025,2.405-0.061H455v151.591C455,387.513,440.013,402.5,421.591,402.5
		z"/>
	<path style = "fill:#fff" d="M108.409,97.5h253.182c4.143,0,7.5-3.358,7.5-7.5s-3.357-7.5-7.5-7.5H108.409c-4.143,0-7.5,3.358-7.5,7.5
		S104.267,97.5,108.409,97.5z"/>
	<path style = "fill:#fff" d="M417.5,187.5c12.406,0,22.5-10.093,22.5-22.5s-10.094-22.5-22.5-22.5S395,152.593,395,165S405.094,187.5,417.5,187.5z
		 M417.5,157.5c4.136,0,7.5,3.364,7.5,7.5s-3.364,7.5-7.5,7.5s-7.5-3.364-7.5-7.5S413.364,157.5,417.5,157.5z"/>
	<circle cx="327.5" cy="165" r="7.5"/>
	<path style = "fill:#fff" d="M213.409,142.5c-12.406,0-22.5,10.093-22.5,22.5s10.094,22.5,22.5,22.5s22.5-10.093,22.5-22.5S225.815,142.5,213.409,142.5
		z M213.409,172.5c-4.136,0-7.5-3.364-7.5-7.5s3.364-7.5,7.5-7.5s7.5,3.364,7.5,7.5S217.545,172.5,213.409,172.5z"/>
</g>
<g>
</g>
<g>
</g>
<g>
</g>
<g>
</g>
<g>
</g>
<g>
</g>
<g>
</g>
<g>
</g>
<g>
</g>
<g>
</g>
<g>
</g>
<g>
</g>
<g>
</g>
<g>
</g>
<g>
</g>
</svg>
